<?xml version="1.0" encoding="utf-8"?>
<!-- Generator: Adobe Illustrator 23.0.2, SVG Export Plug-In . SVG Version: 6.00 Build 0)  -->
<svg version="1.1" id="ARTWORK" xmlns="http://www.w3.org/2000/svg" xmlns:xlink="http://www.w3.org/1999/xlink" x="0px" y="0px"
	 viewBox="0 0 866 1000" style="enable-background:new 0 0 866 1000;" xml:space="preserve">
<style type="text/css">
	.st0{fill:url(#SVGID_1_);}
</style>
<linearGradient id="SVGID_1_" gradientUnits="userSpaceOnUse" x1="91.4944" y1="158.4971" x2="774.5227" y2="841.5255">
	<stop  offset="0.2145" style="stop-color:#0075C9"/>
	<stop  offset="0.7067" style="stop-color:#80BC00"/>
	<stop  offset="1" style="stop-color:#FDE021"/>
</linearGradient>
<path class="st0" d="M863.2,248.4L435.8,1.6L433,0l-2.8,1.6L5.1,247l-2.3,1.3L0,250v500l2.8,1.6l427.3,246.7l2.8,1.6l2.8-1.6
	l421.7-243.4l5.7-3.3l2.9-1.6V250L863.2,248.4z M390.2,64l-104.5,181h-209L390.2,64z M268.6,274.7l-49,84.9L72.5,274.7H268.6z
	 M230.4,400.2L403.3,500l-172.8,99.8L172.8,500L230.4,400.2z M204.7,385.4l-49,84.9l-98-169.8L204.7,385.4z M34,319l104.5,181
	L34,681V319z M155.7,529.8l49,84.9l-147,84.9L155.7,529.8z M219.6,640.4l49,84.9H72.5L219.6,640.4z M76.8,755.1h209l104.5,181
	L76.8,755.1z M418.1,924.9l-98-169.8h98V924.9z M418.1,725.3H302.9l-57.6-99.8l172.8-99.8V725.3z M418.1,474.2l-172.8-99.8
	l57.6-99.8h115.2V474.2z M418.1,244.9h-98l98-169.8V244.9z M661.3,385.4l147-84.9l-98,169.8L661.3,385.4z M693.2,500l-57.6,99.8
	L462.8,500l172.8-99.8L693.2,500z M646.4,359.6l-49-84.9h196.1L646.4,359.6z M789.2,244.9h-209L475.8,64L789.2,244.9z M447.9,75.2
	l98,169.8h-98V75.2z M447.9,274.7h115.2l57.6,99.8l-172.8,99.8V274.7z M447.9,525.8l172.8,99.8l-57.6,99.8H447.9V525.8z
	 M447.9,755.1h98l-98,169.8V755.1z M475.8,936l104.5-181h209L475.8,936z M597.4,725.3l49-84.9l147.1,84.9H597.4z M661.3,614.7
	l49-84.9l98,169.8L661.3,614.7z M832,681L727.5,500L832,319V681z"/>
</svg>
